<svg width="931" height="640" viewBox="0 0 931 640" fill="none" xmlns="http://www.w3.org/2000/svg">
<circle r="62" transform="matrix(-1 0 0 1 62.0776 514.309)" fill="#FFE94E"/>
<circle r="32" transform="matrix(-1 0 0 1 899 243)" fill="#AC00FC"/>
<circle r="9.5" transform="matrix(-1 0 0 1 905.5 194.5)" fill="#AC00FC"/>
<path d="M678 500.309H923.5" stroke="black" stroke-width="1.2"/>
<path d="M57 500.309H302.5" stroke="black" stroke-width="1.2"/>
<circle cx="432.5" cy="319.809" r="319.5" fill="#FFE94E"/>
<path d="M761.5 305C761.5 305 744.5 310 761.5 314" stroke="#292839" stroke-linecap="round"/>
<path d="M784 308C790.383 312.394 796.84 317.484 796.84 317.484C796.84 317.484 779.749 318.784 771.17 313.353C762.534 307.886 750.837 291.795 756.417 291.734C761.998 291.674 777.041 303.209 784 308Z" fill="#292839" stroke="#292839" stroke-linecap="round"/>
<path d="M842.5 205C842.5 205 851.057 192.983 857 196C862.639 198.862 859.5 212 859.5 212" stroke="#292839" stroke-linecap="round"/>
<path d="M826.5 209.999C822.994 204.231 814.5 201.499 811.5 209.999" stroke="#292839" stroke-linecap="round"/>
<path d="M812 210C807.5 206.5 800 205.898 797 214.398" stroke="#292839" stroke-linecap="round"/>
<path d="M837 271.5C837 271.5 837 304 828.5 313.5C826.287 315.974 817.97 316.127 820 313.5C828.5 302.5 828.5 273.5 828.5 273.5L837 271.5Z" fill="white" stroke="#292839" stroke-linecap="round"/>
<path d="M823 223.499C821.883 234.633 837 248.499 837 248.499C837 248.499 848.787 237.682 849.5 228.499C850.345 217.608 846.867 202.886 836 203.999C826.895 204.932 823.914 214.392 823 223.499Z" fill="white" stroke="#292839" stroke-linecap="round"/>
<path d="M819.059 249.56C817.942 260.693 833.059 274.56 833.059 274.56C833.059 274.56 844.846 263.743 845.559 254.56C846.404 243.668 842.926 228.946 832.059 230.06C822.954 230.993 819.973 240.453 819.059 249.56Z" fill="white" stroke="#292839" stroke-linecap="round"/>
<path d="M755.053 258.753C754.048 269.997 767.647 284 767.647 284C767.647 284 778.25 273.076 778.891 263.802C779.651 252.803 776.523 237.936 766.747 239.06C758.557 240.002 755.875 249.556 755.053 258.753Z" fill="white" stroke="#292839" stroke-linecap="round"/>
<path d="M809.075 237.266C812.359 251.138 827.719 265.074 827.719 265.074C827.719 265.074 831.836 249.429 828.985 238.03C825.605 224.509 817.88 207.169 810.865 210.733C804.988 213.72 806.39 225.919 809.075 237.266Z" fill="#292839" stroke="#292839" stroke-linecap="round"/>
<path d="M787.079 267.714C780.256 280.231 782.379 300.861 782.379 300.861C782.379 300.861 795.893 291.969 801.386 281.581C807.901 269.261 813.735 251.197 806.133 249.164C799.764 247.46 792.659 257.475 787.079 267.714Z" fill="white" stroke="#292839" stroke-linecap="round"/>
<path d="M862.594 207.695C866.052 213.482 861.888 224.943 861.888 224.943L837.633 271.999C837.633 271.999 837.636 258.594 839.5 250.999C843.084 236.391 858.688 201.158 862.594 207.695Z" fill="#292839" stroke="#292839" stroke-linecap="round"/>
<path d="M786.192 236.297C790.924 241.1 789.595 253.221 789.595 253.221L779.681 300.595C779.681 300.595 772.179 292.018 772.189 284.198C772.207 269.156 780.847 230.873 786.192 236.297Z" fill="white" stroke="#292839" stroke-linecap="round"/>
<path d="M729.458 246.428C728.344 253.077 736.397 262.235 736.397 262.235L771.73 295.312C771.73 295.312 772.942 283.982 768.441 277.587C759.784 265.286 730.716 238.917 729.458 246.428Z" fill="white" stroke="#292839" stroke-linecap="round"/>
<path d="M729.92 263.416C728.806 270.065 737.597 278.743 743.5 282C758 290 772 293.5 772 293.5C772 293.5 772.001 291.895 767.5 285.5C758.843 273.199 731.178 255.905 729.92 263.416Z" fill="white" stroke="#292839" stroke-linecap="round"/>
<path d="M852 233.999C837.769 244.16 834 274.999 834 274.999C834 274.999 854.061 271.098 863.5 262.999C875.631 252.591 891 236.499 881 225.999C872.898 217.492 861.561 227.173 852 233.999Z" fill="white" stroke="#292839" stroke-linecap="round"/>
<path d="M779 277.5C791.277 292.669 797.223 314.33 797.223 314.33C797.223 314.33 777.162 310.428 767.723 302.33C755.592 291.922 740.223 275.83 750.223 265.33C758.325 256.823 771.609 268.367 779 277.5Z" fill="white" stroke="#292839" stroke-linecap="round"/>
<path d="M810.108 224.77C822.226 236.235 833.5 275 833.5 275C833.5 275 813.22 270.827 805.011 261.541C794.461 249.606 780.728 230.891 787.018 217.124C792.113 205.97 801.966 217.067 810.108 224.77Z" fill="white" stroke="#292839" stroke-linecap="round"/>
<path d="M892 262.5C891.44 271.745 882 278 882 278L836 312C836 312 833.868 303.002 836 299.5C850 276.5 893.213 242.5 892 262.5Z" fill="white" stroke="#292839" stroke-linecap="round"/>
<path d="M874.556 244.81C878.343 257.417 870.574 269.642 870.574 269.642L834.397 333.924C834.397 333.924 827.658 322.747 828.412 317.188C833.363 280.684 866.362 217.538 874.556 244.81Z" fill="white" stroke="#292839" stroke-linecap="round"/>
<path d="M787.018 276.253C787.411 282.742 794.038 287.133 794.038 287.133L826.335 311C826.335 311 827.832 304.684 826.335 302.225C816.506 286.08 786.166 262.214 787.018 276.253Z" fill="#292839" stroke="#292839" stroke-linecap="round"/>
<path d="M853 289C841.277 296.315 829 315 829 315C829 315 846.388 318.771 856 313.5C871.5 305 889.793 285.759 884 279C878 272 863.792 282.266 853 289Z" fill="white" stroke="#292839" stroke-linecap="round"/>
<path d="M814.315 294.717C822.465 299.883 831 313.077 831 313.077C831 313.077 818.912 315.74 812.229 312.018C801.453 306.016 788.735 292.429 792.763 287.656C796.934 282.712 806.812 289.962 814.315 294.717Z" fill="white" stroke="#292839" stroke-linecap="round"/>
<path d="M861.223 534.822C856.433 531.826 851.242 532.09 851.242 532.09C851.242 532.09 759.656 526.594 782.727 540.288C790.255 544.756 795.816 546.249 804.381 547.973C821.004 551.321 821.129 545.411 841.43 545.411C850.324 545.411 868.783 539.552 861.223 534.822Z" fill="#292839" stroke="#292839" stroke-width="1.2"/>
<path d="M889 432C898.818 391.613 898.333 325.768 898.069 310.318C898.039 308.536 896.476 307.202 894.707 307.427C882.857 308.935 841.599 313.921 813.5 314C784.405 314.082 741.665 308.982 729.403 307.438C727.595 307.21 726.013 308.609 726.04 310.431C726.277 326.395 727.834 394.671 737.5 443C751 510.5 781.5 539.5 781.5 539.5C781.5 539.5 799.114 542.461 810.5 542.5C822.274 542.54 840.5 539.5 840.5 539.5C840.5 539.5 867 522.5 889 432Z" fill="white" stroke="#292839"/>
<mask id="mask0" mask-type="alpha" maskUnits="userSpaceOnUse" x="725" y="306" width="174" height="234">
<path d="M781.5 539.5H840.5C840.5 539.5 867 522.5 889 432C898.916 391.211 898.322 324.455 898.061 309.872C898.032 308.247 896.706 307 895.082 307H812H729.018C727.354 307 726.01 308.307 726.034 309.971C726.246 325.037 727.738 394.191 737.5 443C751 510.5 781.5 539.5 781.5 539.5Z" fill="white" stroke="#292839"/>
</mask>
<g mask="url(#mask0)">
<path d="M704 451.616L718.029 425C718.029 425 774.66 432.486 811.225 432.486C864.337 432.486 902.918 425 902.918 425C902.918 425 922.161 448.423 909.933 451.616C803.208 479.48 704 451.616 704 451.616Z" fill="#292839" stroke="#292839"/>
<path d="M704 387.583L718.029 348C718.029 348 774.935 356 811.5 356C864.612 356 902.918 348 902.918 348C902.918 348 920.855 380.091 908.5 384.5C826.067 413.917 704 387.583 704 387.583Z" fill="#292839" stroke="#292839"/>
<path d="M741 508.284L750.353 496C750.353 496 788.107 499.455 812.484 499.455C847.891 499.455 873.612 496 873.612 496C873.612 496 886.441 506.811 878.288 508.284C807.139 521.145 741 508.284 741 508.284Z" fill="#292839" stroke="#292839"/>
</g>
</svg>
