<svg width="988" height="640" viewBox="0 0 988 640" fill="none" xmlns="http://www.w3.org/2000/svg">
<circle r="62" transform="matrix(-1 0 0 1 122.078 514.309)" fill="#FFE94E"/>
<circle r="32" transform="matrix(-1 0 0 1 927 243)" fill="#AC00FC"/>
<circle r="9.5" transform="matrix(-1 0 0 1 933.5 194.5)" fill="#AC00FC"/>
<path d="M85 500.309H330.5" stroke="black" stroke-width="1.2"/>
<circle cx="493.5" cy="319.809" r="319.5" fill="#FFE94E"/>
<path d="M789.5 305C789.5 305 772.5 310 789.5 314" stroke="#292839" stroke-linecap="round"/>
<path d="M812 308C818.383 312.394 824.84 317.484 824.84 317.484C824.84 317.484 807.749 318.784 799.17 313.353C790.534 307.886 778.837 291.795 784.417 291.734C789.998 291.674 805.041 303.209 812 308Z" fill="#292839" stroke="#292839" stroke-linecap="round"/>
<path d="M870.5 205C870.5 205 879.057 192.983 885 196C890.639 198.862 887.5 212 887.5 212" stroke="#292839" stroke-linecap="round"/>
<path d="M854.5 209.999C850.994 204.231 842.5 201.499 839.5 209.999" stroke="#292839" stroke-linecap="round"/>
<path d="M840 210C835.5 206.5 828 205.898 825 214.398" stroke="#292839" stroke-linecap="round"/>
<path d="M865 271.5C865 271.5 865 304 856.5 313.5C854.287 315.974 845.97 316.127 848 313.5C856.5 302.5 856.5 273.5 856.5 273.5L865 271.5Z" fill="white" stroke="#292839" stroke-linecap="round"/>
<path d="M851 223.499C849.883 234.633 865 248.499 865 248.499C865 248.499 876.787 237.682 877.5 228.499C878.345 217.608 874.867 202.886 864 203.999C854.895 204.932 851.914 214.392 851 223.499Z" fill="white" stroke="#292839" stroke-linecap="round"/>
<path d="M847.059 249.56C845.942 260.693 861.059 274.56 861.059 274.56C861.059 274.56 872.846 263.743 873.559 254.56C874.404 243.668 870.926 228.946 860.059 230.06C850.954 230.993 847.973 240.453 847.059 249.56Z" fill="white" stroke="#292839" stroke-linecap="round"/>
<path d="M783.053 258.753C782.048 269.997 795.647 284 795.647 284C795.647 284 806.25 273.076 806.891 263.802C807.651 252.803 804.523 237.936 794.747 239.06C786.557 240.002 783.875 249.556 783.053 258.753Z" fill="white" stroke="#292839" stroke-linecap="round"/>
<path d="M837.075 237.266C840.359 251.138 855.719 265.074 855.719 265.074C855.719 265.074 859.836 249.429 856.985 238.03C853.605 224.509 845.88 207.169 838.865 210.733C832.988 213.72 834.39 225.919 837.075 237.266Z" fill="#292839" stroke="#292839" stroke-linecap="round"/>
<path d="M815.079 267.714C808.256 280.231 810.379 300.861 810.379 300.861C810.379 300.861 823.893 291.969 829.386 281.581C835.901 269.261 841.735 251.197 834.133 249.164C827.764 247.46 820.659 257.475 815.079 267.714Z" fill="white" stroke="#292839" stroke-linecap="round"/>
<path d="M890.594 207.695C894.052 213.482 889.888 224.943 889.888 224.943L865.633 271.999C865.633 271.999 865.636 258.594 867.5 250.999C871.084 236.391 886.688 201.158 890.594 207.695Z" fill="#292839" stroke="#292839" stroke-linecap="round"/>
<path d="M814.192 236.297C818.924 241.1 817.595 253.221 817.595 253.221L807.681 300.595C807.681 300.595 800.179 292.018 800.189 284.198C800.207 269.156 808.847 230.873 814.192 236.297Z" fill="white" stroke="#292839" stroke-linecap="round"/>
<path d="M757.458 246.428C756.344 253.077 764.397 262.235 764.397 262.235L799.73 295.312C799.73 295.312 800.942 283.982 796.441 277.587C787.784 265.286 758.716 238.917 757.458 246.428Z" fill="white" stroke="#292839" stroke-linecap="round"/>
<path d="M757.92 263.416C756.806 270.065 765.597 278.743 771.5 282C786 290 800 293.5 800 293.5C800 293.5 800.001 291.895 795.5 285.5C786.843 273.199 759.178 255.905 757.92 263.416Z" fill="white" stroke="#292839" stroke-linecap="round"/>
<path d="M880 233.999C865.769 244.16 862 274.999 862 274.999C862 274.999 882.061 271.098 891.5 262.999C903.631 252.591 919 236.499 909 225.999C900.898 217.492 889.561 227.173 880 233.999Z" fill="white" stroke="#292839" stroke-linecap="round"/>
<path d="M807 277.5C819.277 292.669 825.223 314.33 825.223 314.33C825.223 314.33 805.162 310.428 795.723 302.33C783.592 291.922 768.223 275.83 778.223 265.33C786.325 256.823 799.609 268.367 807 277.5Z" fill="white" stroke="#292839" stroke-linecap="round"/>
<path d="M838.108 224.77C850.226 236.235 861.5 275 861.5 275C861.5 275 841.22 270.827 833.011 261.541C822.461 249.606 808.728 230.891 815.018 217.124C820.113 205.97 829.966 217.067 838.108 224.77Z" fill="white" stroke="#292839" stroke-linecap="round"/>
<path d="M920 262.5C919.44 271.745 910 278 910 278L864 312C864 312 861.868 303.002 864 299.5C878 276.5 921.213 242.5 920 262.5Z" fill="white" stroke="#292839" stroke-linecap="round"/>
<path d="M902.556 244.81C906.343 257.417 898.574 269.642 898.574 269.642L862.397 333.924C862.397 333.924 855.658 322.747 856.412 317.188C861.363 280.684 894.362 217.538 902.556 244.81Z" fill="white" stroke="#292839" stroke-linecap="round"/>
<path d="M815.018 276.253C815.411 282.742 822.038 287.133 822.038 287.133L854.335 311C854.335 311 855.832 304.684 854.335 302.225C844.506 286.08 814.166 262.214 815.018 276.253Z" fill="#292839" stroke="#292839" stroke-linecap="round"/>
<path d="M881 289C869.277 296.315 857 315 857 315C857 315 874.388 318.771 884 313.5C899.5 305 917.793 285.759 912 279C906 272 891.792 282.266 881 289Z" fill="white" stroke="#292839" stroke-linecap="round"/>
<path d="M842.315 294.717C850.465 299.883 859 313.077 859 313.077C859 313.077 846.912 315.74 840.229 312.018C829.453 306.016 816.735 292.429 820.763 287.656C824.934 282.712 834.812 289.962 842.315 294.717Z" fill="white" stroke="#292839" stroke-linecap="round"/>
<path d="M889.223 534.822C884.433 531.826 879.242 532.09 879.242 532.09C879.242 532.09 787.656 526.594 810.727 540.288C818.255 544.756 823.816 546.249 832.381 547.973C849.004 551.321 849.129 545.411 869.43 545.411C878.324 545.411 896.783 539.552 889.223 534.822Z" fill="#292839" stroke="#292839" stroke-width="1.2"/>
<path d="M917 432C926.818 391.613 926.333 325.768 926.069 310.318C926.039 308.536 924.476 307.202 922.707 307.427C910.857 308.935 869.599 313.921 841.5 314C812.405 314.082 769.665 308.982 757.403 307.438C755.595 307.21 754.013 308.609 754.04 310.431C754.277 326.395 755.834 394.671 765.5 443C779 510.5 809.5 539.5 809.5 539.5C809.5 539.5 827.114 542.461 838.5 542.5C850.274 542.54 868.5 539.5 868.5 539.5C868.5 539.5 895 522.5 917 432Z" fill="white" stroke="#292839"/>
<mask id="mask0" mask-type="alpha" maskUnits="userSpaceOnUse" x="753" y="306" width="174" height="234">
<path d="M809.5 539.5H868.5C868.5 539.5 895 522.5 917 432C926.916 391.211 926.322 324.455 926.061 309.872C926.032 308.247 924.706 307 923.082 307H840H757.018C755.354 307 754.01 308.307 754.034 309.971C754.246 325.037 755.738 394.191 765.5 443C779 510.5 809.5 539.5 809.5 539.5Z" fill="white" stroke="#292839"/>
</mask>
<g mask="url(#mask0)">
<path d="M732 451.616L746.029 425C746.029 425 802.66 432.486 839.225 432.486C892.337 432.486 930.918 425 930.918 425C930.918 425 950.161 448.423 937.933 451.616C831.208 479.48 732 451.616 732 451.616Z" fill="#292839" stroke="#292839"/>
<path d="M732 387.583L746.029 348C746.029 348 802.935 356 839.5 356C892.612 356 930.918 348 930.918 348C930.918 348 948.855 380.091 936.5 384.5C854.067 413.917 732 387.583 732 387.583Z" fill="#292839" stroke="#292839"/>
<path d="M769 508.284L778.353 496C778.353 496 816.107 499.455 840.484 499.455C875.891 499.455 901.612 496 901.612 496C901.612 496 914.441 506.811 906.288 508.284C835.139 521.145 769 508.284 769 508.284Z" fill="#292839" stroke="#292839"/>
</g>
</svg>
