<svg width="105" height="62" viewBox="0 0 105 62" fill="none" xmlns="http://www.w3.org/2000/svg">
<path d="M10.3528 26.7917C9.1209 26.7917 8.17328 27.3129 7.54153 28.1342C7.00455 27.2655 6.05693 26.7917 4.95137 26.7917C3.92478 26.7917 3.15089 27.155 2.6139 27.7551V27.0286H0.0869141L0.0869141 34.9571H2.6139L2.6139 31.0718C2.6139 29.7451 3.21406 29.066 4.1301 29.066C4.88819 29.066 5.47256 29.6346 5.47256 30.5348V34.9571H7.99955V31.0718C7.99955 29.7451 8.6155 29.066 9.54733 29.066C10.2896 29.066 10.874 29.6346 10.874 30.5348V34.9571H13.3852V29.9978C13.3852 28.071 12.0427 26.7917 10.3528 26.7917Z" fill="#261903"/>
<path d="M22.4851 30.9928C22.4377 28.4027 20.6372 26.7917 18.3945 26.7917C16.0886 26.7917 14.1934 28.4974 14.1934 30.9928C14.1934 33.504 16.0886 35.194 18.3787 35.194C20.195 35.194 21.6322 34.3885 22.3113 32.7144L20.0686 32.2563C19.6422 33.0302 18.9631 33.1724 18.3787 33.1724C17.5259 33.1724 16.8783 32.588 16.673 31.6404H22.4851V30.9928ZM18.3945 28.8449C19.121 28.8449 19.7528 29.2397 19.9897 30.0926H16.7204C16.9573 29.2871 17.6838 28.8449 18.3945 28.8449Z" fill="#261903"/>
<path d="M28.853 32.6196C28.5213 32.8091 28.0475 32.9355 27.7001 32.9355C27.0367 32.9355 26.6419 32.6038 26.6419 31.7825V29.0344H28.9794V27.0286H26.6419V24.6912H24.1149V27.0286H22.6777V29.0344H24.1149V32.0352C24.1149 34.12 25.2994 35.194 27.2736 35.194C28.1739 35.194 28.8214 34.9413 29.4374 34.6096L28.853 32.6196Z" fill="#261903"/>
<path d="M38.339 27.0286H35.812V27.6604C35.196 27.1076 34.3747 26.7917 33.3482 26.7917C31.2476 26.7917 29.4787 28.4974 29.4787 30.9928C29.4787 33.504 31.2476 35.194 33.3482 35.194C34.3747 35.194 35.196 34.8781 35.812 34.3253V34.9571H38.339V27.0286ZM33.8694 33.046C32.7638 33.046 31.9583 32.2247 31.9583 30.9928C31.9583 29.7767 32.7638 28.9397 33.8694 28.9397C34.8959 28.9397 35.812 29.7767 35.812 30.9928C35.812 32.2247 34.8959 33.046 33.8694 33.046Z" fill="#261903"/>
<path d="M104.081 41.1876L89.6481 61.8007L67.5726 46.3433L45.497 61.8007L31.0636 41.1877L45.6366 30.9835L31.0635 20.7794L45.4969 0.16626L67.5726 15.6238L89.6482 0.166296L104.082 20.7794L89.5086 30.9835L104.081 41.1876Z" fill="#261903"/>
<path d="M47.542 26.8522V35.1342H49.5816V32.6001H51.5347C53.4507 32.6001 54.6621 31.4506 54.6621 29.7076C54.6621 28.0018 53.4877 26.8522 51.6212 26.8522H47.542ZM49.5816 30.8943V28.5951H51.3863C52.1775 28.5951 52.6595 29.0648 52.6595 29.7323C52.6595 30.4369 52.1775 30.8943 51.3863 30.8943H49.5816Z" fill="white"/>
<path d="M62.7802 35.1342L60.1844 32.1922C61.5194 31.8956 62.3599 30.919 62.3599 29.5593C62.3599 27.94 61.1733 26.8522 59.3809 26.8522H55.1904V35.1342H57.23V32.2911H57.8234L60.3203 35.1342H62.7802ZM57.23 30.5853V28.5951H59.1584C59.8877 28.5951 60.3574 28.9907 60.3574 29.584C60.3574 30.1897 59.8877 30.5853 59.1584 30.5853H57.23Z" fill="white"/>
<path d="M67.3407 26.6668C64.8684 26.6668 62.9277 28.5828 62.9277 31.0056C62.9277 33.416 64.8684 35.3197 67.3407 35.3197C69.8129 35.3197 71.7537 33.416 71.7537 31.0056C71.7537 28.5828 69.8129 26.6668 67.3407 26.6668ZM67.3407 33.4531C65.9933 33.4531 64.9673 32.4148 64.9673 31.0056C64.9673 29.5841 65.9933 28.5334 67.3407 28.5334C68.6881 28.5334 69.7141 29.5841 69.7141 31.0056C69.7141 32.4148 68.6881 33.4531 67.3407 33.4531Z" fill="white"/>
<path d="M76.6942 26.6668C74.222 26.6668 72.2812 28.5828 72.2812 31.0056C72.2812 33.416 74.222 35.3197 76.6942 35.3197C79.1665 35.3197 81.1072 33.416 81.1072 31.0056C81.1072 28.5828 79.1665 26.6668 76.6942 26.6668ZM76.6942 33.4531C75.3468 33.4531 74.3209 32.4148 74.3209 31.0056C74.3209 29.5841 75.3468 28.5334 76.6942 28.5334C78.0416 28.5334 79.0676 29.5841 79.0676 31.0056C79.0676 32.4148 78.0416 33.4531 76.6942 33.4531Z" fill="white"/>
<path d="M83.7066 28.6446H88.0701V26.8522H81.667V35.1342H83.7066V32.1675H87.588V30.3875H83.7066V28.6446Z" fill="white"/>
</svg>
