<svg width="80" height="49" viewBox="0 0 80 49" fill="none" xmlns="http://www.w3.org/2000/svg">
<path d="M18.0127 5C15.9066 5 14.2716 5.792 13.08 7.32138C12.0824 5.792 10.5859 5 8.53525 5C6.81712 5 5.43153 5.57352 4.43391 6.66593V5H2.34916e-05L0 19.6667H4.43388L4.43391 12.4011C4.43391 11.2814 4.6556 10.4348 5.1267 9.83393C5.5978 9.2331 6.26289 8.93269 7.09424 8.93269C7.75932 8.93269 8.34127 9.17848 8.78466 9.64276C9.22805 10.107 9.44974 10.7079 9.44974 11.4726L9.44972 19.6667H13.8836L13.8836 12.4011C13.8836 11.2814 14.1053 10.4348 14.6041 9.83393C15.1029 9.2331 15.768 8.93269 16.5994 8.93269C17.2645 8.93269 17.8187 9.17848 18.2621 9.64276C18.7055 10.107 18.9272 10.7079 18.9272 11.4726L18.9271 19.6667H23.3333L23.3333 10.544C23.3333 8.90538 22.8068 7.59448 21.8092 6.55669C20.7839 5.5189 19.5091 5 18.0127 5Z" fill="#292839"/>
<path d="M40 12.3333C39.9441 10.1278 39.2457 8.36341 37.8768 7.01253C36.48 5.68922 34.7758 5 32.7644 5C30.6692 5 28.9092 5.68922 27.4844 7.06767C26.0317 8.44612 25.3333 10.2105 25.3333 12.3333C25.3333 14.4837 26.0317 16.2481 27.4844 17.6266C28.9092 19.005 30.6692 19.6667 32.7365 19.6667C34.3568 19.6667 35.7815 19.3083 36.9828 18.5915C38.1841 17.8747 39.0781 16.7719 39.6927 15.3383L35.7257 14.5388C35.1111 15.614 34.1333 16.1378 32.7365 16.1378C31.9822 16.1378 31.3396 15.9173 30.8088 15.4211C30.2501 14.9524 29.8869 14.2907 29.7193 13.4637H40V12.3333ZM32.7644 8.58396C33.4349 8.58396 34.0215 8.77694 34.5244 9.13534C35.0273 9.5213 35.3625 10.0451 35.586 10.7619H29.8031C29.9987 10.1003 30.3898 9.54887 30.9485 9.16291C31.5073 8.77694 32.0939 8.58396 32.7644 8.58396Z" fill="#292839"/>
<path d="M53.0161 15.3409C52.3399 15.7326 51.6637 15.9005 50.9594 15.9005C49.6915 15.9005 49.0717 15.229 49.0717 13.858V8.98962H53.2175V4.97413H49.0717V0H44.5639V4.97413H42.0001V8.98962H44.5639V14.3057C44.5639 16.1523 45.0428 17.5233 46.0289 18.4746C47.015 19.4259 48.3955 20 50.1987 20C51.4665 20 52.7041 19.5337 54.0001 18.8342L53.0161 15.3409Z" fill="#292839"/>
<path d="M71.3333 5H66.9602V6.50207C65.8396 5.5189 64.4183 5 62.6964 5C60.8378 5 59.2525 5.68276 57.9406 7.04828C56.6286 8.41379 56 10.1617 56 12.2646C56 14.3948 56.6286 16.1426 57.9406 17.5081C59.2525 18.8737 60.8378 19.6667 62.6964 19.6667C64.4183 19.6667 65.8396 19.0375 66.9602 18.027V19.6667H71.3333V5ZM63.5983 15.8149C62.6144 15.8149 61.8217 15.4872 61.2204 14.8317C60.5918 14.1763 60.2911 13.3297 60.2911 12.2646C60.2911 11.2268 60.5918 10.3801 61.2204 9.72469C61.8217 9.06924 62.6144 8.71421 63.5983 8.71421C64.5003 8.71421 65.2929 9.06924 65.9489 9.72469C66.6049 10.4075 66.9602 11.2541 66.9602 12.2646C66.9602 13.3023 66.6049 14.1763 65.9489 14.8317C65.2929 15.4872 64.5003 15.8149 63.5983 15.8149Z" fill="#292839"/>
<path d="M8.82472 29.333C7.03744 29.333 5.58527 29.8558 4.46821 30.8463V29.333H0V48.9997H4.46821V42.4574C5.58527 43.4754 7.03744 43.9707 8.82472 43.9707C10.7237 43.9707 12.3155 43.3103 13.656 41.9346C14.9964 40.5589 15.6667 38.798 15.6667 36.6518C15.6667 34.5332 14.9964 32.7723 13.656 31.3966C12.3155 30.0209 10.7237 29.333 8.82472 29.333ZM7.90315 40.2287C6.95366 40.2287 6.14379 39.8985 5.47356 39.2382C4.80333 38.5778 4.46821 37.6974 4.46821 36.6518C4.46821 35.6338 4.80333 34.7809 5.47356 34.093C6.14379 33.4327 6.95366 33.075 7.90315 33.075C8.88057 33.075 9.69044 33.4327 10.3327 34.093C10.9471 34.7533 11.2822 35.6063 11.2822 36.6518C11.2822 37.7249 10.9471 38.5778 10.3327 39.2382C9.69044 39.8985 8.88057 40.2287 7.90315 40.2287Z" fill="#292839"/>
<path d="M26.9919 29.3402C24.9197 29.3402 23.2954 30.3178 22.1473 32.2171V29.333H17.6667V44.333H22.1473V39.1719C22.1473 35.6806 23.7435 33.9209 26.9919 33.9209H28.0001V29.4519C27.692 29.3961 27.356 29.3402 26.9919 29.3402Z" fill="#292839"/>
<path d="M60.0416 29.333C57.8789 29.333 56.0488 30.0419 54.5515 31.4313C53.0543 32.8491 52.3333 34.6355 52.3333 36.8188C52.3333 39.0306 53.0543 40.8453 54.5515 42.2347C56.0488 43.6525 57.8789 44.333 60.0416 44.333C62.1489 44.333 63.9512 43.6525 65.4485 42.2347C66.918 40.8453 67.6667 39.0306 67.6667 36.8188C67.6667 34.6355 66.918 32.8491 65.4485 31.4313C63.9512 30.0419 62.1489 29.333 60.0416 29.333ZM60.0416 40.505C59.0989 40.505 58.267 40.1648 57.6016 39.4842C56.9361 38.8037 56.6034 37.8963 56.6034 36.8188C56.6034 35.7413 56.9361 34.8623 57.6293 34.1818C58.2948 33.5013 59.0989 33.1326 60.0416 33.1326C60.9289 33.1326 61.7053 33.5013 62.3707 34.1818C63.0362 34.8623 63.3966 35.7413 63.3966 36.8188C63.3966 37.8963 63.0639 38.8037 62.3984 39.4842C61.733 40.1648 60.9289 40.505 60.0416 40.505Z" fill="#292839"/>
<path fill-rule="evenodd" clip-rule="evenodd" d="M27.8856 39.1902C29.3837 39.1902 30.4656 40.3902 30.4656 41.7902C30.4656 43.2473 29.3837 44.333 27.8856 44.333C26.3875 44.333 25.3333 43.2473 25.3333 41.7902C25.3333 40.3902 26.3875 39.1902 27.8856 39.1902ZM40.096 24.333C45.6444 24.333 50 28.7616 50 34.3616C50 39.933 45.6444 44.333 40.096 44.333C34.5475 44.333 30.192 39.933 30.192 34.3616C30.192 28.7616 34.5475 24.333 40.096 24.333ZM40.096 40.0187C43.1199 40.0187 45.4225 37.6187 45.4225 34.3616C45.4225 31.0759 43.1199 28.6473 40.096 28.6473C37.0721 28.6473 34.7694 31.0759 34.7694 34.3616C34.7694 37.6187 37.0721 40.0187 40.096 40.0187Z" fill="#AC00FC"/>
<path d="M76.0662 30.4269V29.5404C76.0662 29.0141 76.2324 28.5985 76.5648 28.2661C76.8973 27.9614 77.3128 27.7952 77.8669 27.7952C78.1993 27.7952 78.6149 27.8783 79.0581 28.0168L80 24.5817C79.1135 24.1939 78.1993 24 77.2574 24C75.5675 24 74.21 24.4986 73.185 25.4682C72.16 26.4378 71.6613 27.7398 71.6613 29.3465V30.4269H69.6667V33.9451H71.6613V44.3333H76.0662V33.9451H79.8892V30.4269H76.0662Z" fill="#292839"/>
</svg>
