<svg width="490" height="406" viewBox="0 0 490 406" fill="none" xmlns="http://www.w3.org/2000/svg">
<ellipse cx="273.548" cy="123.793" rx="124.311" ry="123.793" fill="#FFE94E"/>
<circle cx="68.435" cy="208.22" r="30.0418" fill="#FFE94E"/>
<path d="M330.006 265.714L334.667 236.708H320.164L293.748 284.361L238.844 390.543H265.778L301 358.947L307.733 346.516V323.726L316.539 310.259V284.361L330.006 265.714Z" fill="#292839" stroke="#292839" stroke-width="1.2" stroke-linecap="round"/>
<path d="M201.551 88.5717L222.995 53.9684C223.689 52.8493 225.237 52.6525 226.188 53.5624L295.302 119.649L305.468 131.848C305.596 132.002 305.702 132.174 305.781 132.358L308.654 139.063C308.73 139.241 308.832 139.408 308.955 139.559L317.919 150.515C318.034 150.656 318.13 150.811 318.205 150.977L322.494 160.508C322.664 160.885 322.942 161.202 323.293 161.42L332.956 167.401C333.391 167.671 333.711 168.092 333.854 168.583L337.173 179.962C337.229 180.154 337.312 180.336 337.42 180.504L351.663 202.605C352.046 203.2 352.1 203.948 351.805 204.591L346.686 215.759C346.616 215.913 346.565 216.074 346.534 216.24L343.667 231.527C343.545 232.179 343.118 232.733 342.518 233.017L333.887 237.105C333.717 237.186 333.559 237.289 333.417 237.412L318.587 250.265C318.265 250.544 318.037 250.915 317.934 251.328L313.553 268.852C313.473 269.173 313.317 269.47 313.098 269.718L302.552 281.702C302.219 282.081 302.036 282.567 302.036 283.071V293.561C302.036 293.979 301.91 294.387 301.674 294.731L295.948 303.1C295.546 303.687 295.474 304.44 295.757 305.093L301.567 318.501C301.858 319.172 301.774 319.946 301.346 320.538L295.694 328.363C295.439 328.716 295.302 329.14 295.302 329.576V337.416C295.302 337.939 295.104 338.442 294.749 338.825L289.122 344.884C288.766 345.268 288.569 345.771 288.569 346.294V363.27C288.569 364.103 288.069 364.856 287.301 365.179L269.26 372.775C269.013 372.879 268.789 373.03 268.599 373.22L261.896 379.923C261.723 380.096 261.521 380.237 261.299 380.339L255.609 382.965C255.153 383.176 254.789 383.545 254.584 384.005L251.304 391.385C250.972 392.133 250.23 392.615 249.411 392.615H233.391C232.607 392.615 231.889 392.172 231.538 391.47L227.766 383.926C227.561 383.515 227.224 383.184 226.81 382.985L214.5 377.076L202.992 373.394C202.133 373.119 201.551 372.321 201.551 371.42V365.074C201.551 364.791 201.493 364.511 201.381 364.252L193.603 346.265C193.386 345.763 192.979 345.367 192.471 345.163L184.416 341.942C183.529 341.587 183 340.671 183.135 339.725L185.991 319.728C186.005 319.631 186.012 319.533 186.012 319.435V305.135C186.012 304.452 185.676 303.813 185.112 303.426L168.932 292.331C168.289 291.89 167.948 291.126 168.049 290.352L170.416 272.363C170.454 272.078 170.432 271.787 170.351 271.511L164.341 250.979C164.286 250.79 164.258 250.594 164.258 250.397V232.955C164.258 232.697 164.21 232.442 164.116 232.202L155.971 211.329L148.87 187.492C148.771 187.159 148.757 186.806 148.83 186.466L151.827 172.481L155.846 151.378C155.927 150.955 156.138 150.567 156.45 150.269L167.575 139.627C167.779 139.432 167.94 139.198 168.05 138.939L174.939 122.701C175.068 122.397 175.267 122.129 175.52 121.918L190.357 109.554C190.566 109.38 190.739 109.166 190.865 108.925L201.551 88.5717Z" fill="#292839"/>
<path d="M254.901 269.34L332.595 206.667L247.65 335.639L158.56 183.876L254.901 269.34Z" fill="white" stroke="#292839" stroke-width="1.2" stroke-linecap="round"/>
<path d="M226.413 47.6523H256.973L182.905 190.092L162.186 171.963L226.413 47.6523Z" fill="white" stroke="#292839" stroke-width="1.2" stroke-linecap="round"/>
<path d="M182.905 190.092L256.973 48.1704L331.042 190.092L256.973 251.211L182.905 190.092Z" fill="white" stroke="#292839" stroke-width="1.2" stroke-linecap="round"/>
<path d="M250.758 392.615L254.584 384.005C254.789 383.545 255.153 383.176 255.609 382.965L261.299 380.339C261.521 380.236 261.723 380.096 261.896 379.923L268.599 373.22C268.789 373.03 269.013 372.879 269.26 372.775L287.301 365.179C288.069 364.855 288.569 364.103 288.569 363.269V346.294C288.569 345.771 288.766 345.268 289.122 344.884L294.749 338.825C295.104 338.442 295.302 337.938 295.302 337.415V329.576C295.302 329.14 295.439 328.716 295.694 328.363L301.346 320.538C301.774 319.946 301.858 319.172 301.567 318.501L295.757 305.093C295.474 304.44 295.546 303.687 295.948 303.1L301.674 294.731C301.91 294.387 302.036 293.979 302.036 293.561V283.071C302.036 282.567 302.219 282.081 302.552 281.702L313.098 269.718C313.317 269.47 313.473 269.173 313.553 268.852L317.934 251.328C318.037 250.915 318.265 250.544 318.587 250.265L333.631 237.227" stroke="white" stroke-width="1.2" stroke-linecap="round"/>
<circle cx="258.683" cy="165.828" r="15.2814" fill="white" stroke="black" stroke-width="1.2" stroke-linecap="round"/>
<mask id="mask0" mask-type="alpha" maskUnits="userSpaceOnUse" x="242" y="149" width="33" height="33">
<circle cx="258.683" cy="165.828" r="15.2814" fill="white" stroke="black" stroke-width="1.2" stroke-linecap="round"/>
</mask>
<g mask="url(#mask0)">
<path d="M246.379 154.628C246.151 154.509 245.933 154.404 245.735 154.312C245.995 154.117 246.31 153.886 246.665 153.632C247.719 152.877 249.123 151.926 250.537 151.129C251.971 150.32 253.343 149.71 254.355 149.571C254.859 149.502 255.181 149.563 255.373 149.68C255.535 149.778 255.701 149.976 255.755 150.451C255.779 150.659 255.765 150.822 255.746 151.042L255.745 151.061C255.725 151.292 255.702 151.577 255.759 151.934C255.872 152.644 256.31 153.136 256.78 153.489C257.19 153.797 257.682 154.042 258.099 154.249C258.147 154.273 258.195 154.297 258.242 154.32C258.729 154.564 259.056 154.748 259.235 154.941C259.312 155.024 259.337 155.084 259.345 155.126C259.353 155.168 259.357 155.249 259.295 155.396C259.199 155.625 259.041 155.743 258.715 155.933C258.694 155.946 258.671 155.959 258.648 155.972C258.341 156.15 257.891 156.409 257.585 156.924C257.295 157.408 257.219 157.847 257.168 158.219C257.162 158.262 257.157 158.303 257.151 158.344C257.11 158.657 257.077 158.904 256.961 159.192C256.756 159.701 256.351 160.026 255.837 160.441C255.748 160.512 255.656 160.586 255.561 160.665C255.267 160.907 254.938 161.202 254.711 161.579C254.469 161.981 254.357 162.453 254.448 163.01C254.504 163.352 254.727 163.573 254.923 163.707C255.116 163.838 255.348 163.931 255.565 164.002C255.823 164.087 256.155 164.171 256.486 164.255C256.686 164.306 256.886 164.356 257.068 164.407C257.6 164.554 258.099 164.726 258.498 164.97C258.889 165.209 259.154 165.497 259.279 165.871C259.601 166.836 260 167.482 260.461 167.959C260.89 168.403 261.351 168.676 261.742 168.907C261.764 168.92 261.786 168.933 261.808 168.946C262.221 169.191 262.565 169.406 262.883 169.763C263.199 170.117 263.517 170.645 263.791 171.54C263.967 172.111 263.905 172.607 263.829 173.223C263.823 173.272 263.817 173.323 263.81 173.375C263.729 174.047 263.661 174.846 264.126 175.724C264.65 176.712 265.524 177.064 266.206 177.339C266.923 177.628 267.439 177.838 267.794 178.39C267.949 178.632 268.115 178.991 268.248 179.313C268.249 179.316 268.25 179.319 268.252 179.322L260.232 182.377C260.172 182.169 260.103 181.917 260.035 181.641C259.845 180.862 259.682 179.951 259.719 179.264C259.775 178.22 260.372 177.531 261.117 176.672L261.147 176.637C261.872 175.8 262.736 174.784 262.632 173.218C262.585 172.507 262.502 171.885 262.306 171.287C262.107 170.682 261.802 170.13 261.342 169.538C260.861 168.92 260.199 168.703 259.583 168.614C259.278 168.569 258.964 168.554 258.671 168.542C258.622 168.54 258.574 168.538 258.526 168.536C258.279 168.527 258.048 168.518 257.817 168.497C257.27 168.448 256.835 168.338 256.49 168.074C256.155 167.818 255.825 167.355 255.627 166.43C255.526 165.959 255.345 165.566 255.081 165.253C254.815 164.938 254.49 164.732 254.145 164.598C253.486 164.343 252.702 164.337 252.038 164.333L251.99 164.332C251.294 164.328 250.688 164.324 250.167 164.177C249.675 164.039 249.287 163.78 249.024 163.235C248.876 162.928 248.835 162.521 248.885 161.991C248.93 161.515 249.039 161.007 249.158 160.457C249.172 160.393 249.186 160.329 249.2 160.264C249.329 159.662 249.462 159.007 249.474 158.393C249.486 157.774 249.379 157.122 248.96 156.575C248.323 155.742 247.236 155.072 246.379 154.628Z" stroke="black" stroke-width="1.2" stroke-linecap="round"/>
<path d="M246.379 154.628C246.151 154.509 245.933 154.404 245.735 154.312C245.995 154.117 246.31 153.886 246.665 153.632C247.719 152.877 249.123 151.926 250.537 151.129C251.971 150.32 253.343 149.71 254.355 149.571C254.859 149.502 255.181 149.563 255.373 149.68C255.535 149.778 255.701 149.976 255.755 150.451C255.779 150.659 255.765 150.822 255.746 151.042L255.745 151.061C255.725 151.292 255.702 151.577 255.759 151.934C255.872 152.644 256.31 153.136 256.78 153.489C257.19 153.797 257.682 154.042 258.099 154.249C258.147 154.273 258.195 154.297 258.242 154.32C258.729 154.564 259.056 154.748 259.235 154.941C259.312 155.024 259.337 155.084 259.345 155.126C259.353 155.168 259.357 155.249 259.295 155.396C259.199 155.625 259.041 155.743 258.715 155.933C258.694 155.946 258.671 155.959 258.648 155.972C258.341 156.15 257.891 156.409 257.585 156.924C257.295 157.408 257.219 157.847 257.168 158.219C257.162 158.262 257.157 158.303 257.151 158.344C257.11 158.657 257.077 158.904 256.961 159.192C256.756 159.701 256.351 160.026 255.837 160.441C255.748 160.512 255.656 160.586 255.561 160.665C255.267 160.907 254.938 161.202 254.711 161.579C254.469 161.981 254.357 162.453 254.448 163.01C254.504 163.352 254.727 163.573 254.923 163.707C255.116 163.838 255.348 163.931 255.565 164.002C255.823 164.087 256.155 164.171 256.486 164.255C256.686 164.306 256.886 164.356 257.068 164.407C257.6 164.554 258.099 164.726 258.498 164.97C258.889 165.209 259.154 165.497 259.279 165.871C259.601 166.836 260 167.482 260.461 167.959C260.89 168.403 261.351 168.676 261.742 168.907C261.764 168.92 261.786 168.933 261.808 168.946C262.221 169.191 262.565 169.406 262.883 169.763C263.199 170.117 263.517 170.645 263.791 171.54C263.967 172.111 263.905 172.607 263.829 173.223C263.823 173.272 263.817 173.323 263.81 173.375C263.729 174.047 263.661 174.846 264.126 175.724C264.65 176.712 265.524 177.064 266.206 177.339C266.923 177.628 267.439 177.838 267.794 178.39C267.949 178.632 268.115 178.991 268.248 179.313C268.249 179.316 268.25 179.319 268.252 179.322L260.232 182.377C260.172 182.169 260.103 181.917 260.035 181.641C259.845 180.862 259.682 179.951 259.719 179.264C259.775 178.22 260.372 177.531 261.117 176.672L261.147 176.637C261.872 175.8 262.736 174.784 262.632 173.218C262.585 172.507 262.502 171.885 262.306 171.287C262.107 170.682 261.802 170.13 261.342 169.538C260.861 168.92 260.199 168.703 259.583 168.614C259.278 168.569 258.964 168.554 258.671 168.542C258.622 168.54 258.574 168.538 258.526 168.536C258.279 168.527 258.048 168.518 257.817 168.497C257.27 168.448 256.835 168.338 256.49 168.074C256.155 167.818 255.825 167.355 255.627 166.43C255.526 165.959 255.345 165.566 255.081 165.253C254.815 164.938 254.49 164.732 254.145 164.598C253.486 164.343 252.702 164.337 252.038 164.333L251.99 164.332C251.294 164.328 250.688 164.324 250.167 164.177C249.675 164.039 249.287 163.78 249.024 163.235C248.876 162.928 248.835 162.521 248.885 161.991C248.93 161.515 249.039 161.007 249.158 160.457C249.172 160.393 249.186 160.329 249.2 160.264C249.329 159.662 249.462 159.007 249.474 158.393C249.486 157.774 249.379 157.122 248.96 156.575C248.323 155.742 247.236 155.072 246.379 154.628Z" fill="black" stroke="black" stroke-width="1.2" stroke-linecap="round"/>
<path d="M270.064 163.928L270.064 163.928L270.064 163.928L270.064 163.928L270.339 163.851L270.452 163.589L269.901 163.351C270.452 163.589 270.452 163.589 270.452 163.589L270.452 163.588L270.453 163.588L270.454 163.585L270.457 163.578L270.466 163.555C270.475 163.535 270.486 163.506 270.501 163.47C270.53 163.398 270.569 163.296 270.615 163.169C270.705 162.916 270.82 162.563 270.917 162.164C271.013 161.766 271.094 161.31 271.11 160.853C271.126 160.402 271.08 159.911 270.889 159.47C270.609 158.824 270.066 158.511 269.709 158.305C269.684 158.29 269.659 158.276 269.636 158.263C269.242 158.033 269.088 157.907 269.025 157.664C268.983 157.501 268.999 157.279 269.099 156.993C269.197 156.712 269.36 156.416 269.547 156.138C269.711 155.894 269.883 155.676 270.026 155.509L274.859 158.18L275.259 164.85C275.217 164.887 275.168 164.929 275.114 164.975C274.892 165.165 274.58 165.415 274.218 165.661C273.855 165.908 273.455 166.143 273.055 166.309C272.651 166.476 272.284 166.558 271.976 166.54C271.14 166.491 270.029 166.199 269.275 165.763C268.893 165.542 268.675 165.326 268.588 165.155C268.528 165.038 268.508 164.915 268.649 164.708C268.771 164.529 269.071 164.33 269.442 164.162C269.611 164.085 269.77 164.026 269.886 163.985C269.944 163.965 269.991 163.951 270.022 163.941L270.056 163.931L270.063 163.928L270.064 163.928L270.064 163.928Z" fill="black" stroke="black" stroke-width="1.2" stroke-linecap="round"/>
</g>
<circle cx="258.683" cy="165.828" r="15.2814" stroke="black" stroke-width="1.2" stroke-linecap="round"/>
<path d="M261.585 147.194L262.831 131.779C262.831 131.779 263.921 131.631 267.969 132.714C271.706 133.712 272.796 134.426 272.796 134.426L265.789 148.44C265.789 148.44 264.576 147.904 263.765 147.661C262.931 147.412 261.585 147.194 261.585 147.194Z" fill="white" stroke="black" stroke-width="1.2" stroke-linecap="round"/>
<path d="M267.772 149.384L274.664 135.361C274.664 135.361 275.292 135.56 278.726 137.962C281.895 140.179 282.675 141.223 282.675 141.223L271.55 152.177C271.55 152.177 270.34 151.075 269.661 150.569C268.962 150.05 267.772 149.384 267.772 149.384Z" fill="white" stroke="black" stroke-width="1.2" stroke-linecap="round"/>
<path d="M272.952 153.578L284.007 142.679C284.007 142.679 285.003 143.326 287.396 146.765C289.605 149.94 289.924 151.554 289.924 151.554L275.599 157.782C275.599 157.782 274.816 156.311 274.353 155.602C273.877 154.874 272.952 153.578 272.952 153.578Z" fill="white" stroke="black" stroke-width="1.2" stroke-linecap="round"/>
<path d="M276.462 159.522L290.805 153.582C290.805 153.582 291.484 154.556 292.408 158.644C293.261 162.417 292.948 164.031 292.948 164.031L277.333 164.413C277.333 164.413 277.161 162.756 276.999 161.925C276.831 161.07 276.462 159.522 276.462 159.522Z" fill="white" stroke="black" stroke-width="1.2" stroke-linecap="round"/>
<path d="M277.391 166.226L292.899 165.5C292.899 165.5 293.208 166.647 292.691 170.806C292.214 174.644 291.325 176.623 291.325 176.623L276.552 171.123C276.552 171.123 276.953 169.505 277.082 168.668C277.214 167.808 277.391 166.226 277.391 166.226Z" fill="white" stroke="black" stroke-width="1.2" stroke-linecap="round"/>
<path d="M275.91 173.041L290.546 178.491C290.546 178.491 290.642 178.927 288.61 182.592C286.733 185.974 285.253 187.522 285.253 187.522L273.886 176.778C273.886 176.778 274.544 175.794 274.976 175.066C275.42 174.317 275.91 173.041 275.91 173.041Z" fill="white" stroke="black" stroke-width="1.2" stroke-linecap="round"/>
<path d="M272.484 178.336L283.695 189.079C283.695 189.079 283.454 189.781 280.27 192.505C277.331 195.02 275.91 195.308 275.91 195.308L268.903 181.45C268.903 181.45 270.081 180.614 270.74 180.082C271.418 179.535 272.484 178.336 272.484 178.336Z" fill="white" stroke="black" stroke-width="1.2" stroke-linecap="round"/>
<path d="M267.326 182.32L274.197 196.242C274.197 196.242 273.446 196.943 269.496 198.341C265.849 199.63 264.232 199.512 264.232 199.512L262.864 183.938C262.864 183.938 264.264 183.581 265.07 183.322C265.899 183.055 267.326 182.32 267.326 182.32Z" fill="white" stroke="black" stroke-width="1.2" stroke-linecap="round"/>
<path d="M249.208 149.686L239.243 137.431C239.243 137.431 241.499 135.862 243.367 135.049C246.949 133.492 248.506 133.025 248.506 133.025L253.333 147.817C253.333 147.817 251.771 148.407 250.997 148.751C250.192 149.11 249.208 149.686 249.208 149.686Z" fill="white" stroke="black" stroke-width="1.2" stroke-linecap="round"/>
<path d="M255.086 147.428L250.53 132.402C250.53 132.402 253.345 131.861 255.373 131.672C259.249 131.312 260.651 131.468 260.651 131.468L259.561 147.194C259.561 147.194 258.228 147.02 257.381 147.038C256.5 147.057 255.086 147.428 255.086 147.428Z" fill="white" stroke="black" stroke-width="1.2" stroke-linecap="round"/>
<path d="M233.147 392.097L239.756 377.463C240.179 376.525 240.398 375.508 240.398 374.478V355.587C240.398 353.752 241.094 351.985 242.344 350.643L260.019 331.675C261.069 330.549 261.733 329.117 261.915 327.589L264.224 308.187" stroke="white" stroke-width="1.2" stroke-linecap="round"/>
<path d="M178.761 202.005L247.65 335.121" stroke="#292839" stroke-width="1.2" stroke-linecap="round"/>
<path d="M317.575 202.24C324.822 202.117 341.123 198.864 342.515 199.262L341.768 208.455C341.768 208.455 331.042 207.185 320.164 208.455C311.059 209.519 305.143 204.75 302.554 200.451C299.45 195.299 313.442 202.24 313.442 202.24C313.442 202.24 309.878 198.735 312.395 196.825C313.885 195.695 317.575 202.24 317.575 202.24Z" fill="white" stroke="#292839" stroke-width="1.2" stroke-linecap="round"/>
<path d="M368.853 159.014L372.276 168.963L363.323 171.521V163.158C363.323 163.158 359.105 169.246 356.422 167.82C348.289 163.495 360.764 142.102 360.764 142.102L376.104 149.691L368.853 159.014Z" fill="white" stroke="#292839" stroke-width="1.2" stroke-linecap="round"/>
<path d="M317.762 128.971C317.298 129.064 316.562 129.812 315.694 130.926C310.692 137.346 308.192 140.557 310.062 142.56C311.932 144.563 315.164 142.384 321.628 138.025C323.389 136.838 324.59 135.537 324.59 134.199C324.59 132.24 323.103 132.323 321.816 131.211C320.457 130.036 319.525 128.618 317.762 128.971Z" fill="white" stroke="#292839" stroke-width="1.2" stroke-linecap="round"/>
<path d="M338.143 159.804L313.583 132.112C313.289 131.781 312.794 131.721 312.429 131.973C312.021 132.256 311.929 132.822 312.228 133.219L334.468 162.807C335.258 163.858 336.751 164.067 337.8 163.274C338.904 162.438 339.062 160.839 338.143 159.804Z" fill="white" stroke="#292839" stroke-width="1.2" stroke-linecap="round"/>
<path d="M320.164 139.332L318.093 140.886" stroke="#292839" stroke-width="1.2" stroke-linecap="round"/>
<path d="M337.949 159.175C342.416 164.883 350.151 179.596 351.336 180.427L358.009 174.059C358.009 174.059 351.523 165.599 344.408 157.274C338.811 150.727 335.185 150.727 332.078 149.691C326.371 147.789 335.347 155.965 335.347 155.965C335.347 155.965 330.94 154.303 331.042 157.46C331.102 159.33 337.949 159.175 337.949 159.175Z" fill="white" stroke="#292839" stroke-width="1.2" stroke-linecap="round"/>
<path d="M488.063 304.549C483.322 297.828 466.747 287.987 466.747 287.987L470.373 300.418C470.373 300.418 491.53 309.464 488.063 304.549Z" fill="#292839" stroke="#292839" stroke-width="1.2" stroke-linecap="round"/>
<path d="M400.291 334.941L396.453 300.405L383.662 299.126L390.058 332.383L383.356 339.783L400.291 334.941Z" fill="white" stroke="#292839" stroke-width="1.2" stroke-linecap="round"/>
<path d="M466.318 287.92L440.736 266.175L433.061 278.966L471.435 300.711L466.318 287.92Z" fill="white" stroke="#292839" stroke-width="1.2" stroke-linecap="round"/>
<path d="M401.238 339.016L400.29 332.383C400.29 332.383 391.643 338.229 387.499 337.5C385.773 337.196 388.861 333.703 389.819 332.67C389.892 332.591 389.825 332.463 389.723 332.493C386.701 333.409 366.131 339.76 371.961 341.337C373.534 341.763 392.524 341.489 399.237 341.378C400.482 341.357 401.414 340.249 401.238 339.016Z" fill="#292839" stroke="#292839" stroke-width="1.2" stroke-linecap="round"/>
<path d="M378.059 303.27C378.059 284.361 362.637 212.365 362.637 212.365L397.341 211.329C397.341 211.329 426.347 247.586 441.885 265.197C444.479 268.136 440.296 268.494 437.224 272.448C434.206 276.333 432.347 283.869 429.454 280.735C417.023 267.268 390.85 232.919 390.85 232.919C390.85 232.919 398.895 279.7 400.449 299.382C400.778 303.559 395.396 300.045 389.571 300.936C384.041 301.782 378.059 307.248 378.059 303.27Z" fill="white" stroke="#292839" stroke-width="1.2" stroke-linecap="round"/>
<path d="M379.951 144.661C379.951 144.661 370.997 128.455 363.156 134.153C355.668 139.593 361.311 148.319 367.817 152.799C367.817 152.799 369.577 147.655 371.961 149.173C375.027 151.127 368.335 157.979 368.335 157.979L370.925 165.23L379.951 156.173C379.951 156.173 383.197 164.096 387.626 166.406C396.937 171.265 399.315 138.16 388.905 139.545C384.913 140.076 379.951 144.661 379.951 144.661Z" fill="#292839" stroke="#292839" stroke-width="1.2" stroke-linecap="round"/>
<path d="M364.71 221.169C373.691 214.754 389.571 213.4 400.967 214.954C407.231 215.808 391.486 183.799 384.911 174.034C381.998 169.708 372.48 168.854 372.48 168.854L363.525 170.527C360.069 171.172 356.909 172.899 354.503 175.461C348.822 181.514 338.237 192.817 334.667 196.825C330.943 201.007 341.919 200.969 341.919 209.774C341.919 216.646 363.324 189.428 363.324 189.428C363.324 189.428 357.459 226.348 364.71 221.169Z" fill="white" stroke="#292839" stroke-width="1.2" stroke-linecap="round"/>
<mask id="mask1" mask-type="alpha" maskUnits="userSpaceOnUse" x="333" y="168" width="71" height="55">
<path d="M364.71 221.169C373.691 214.754 389.571 213.4 400.967 214.954C407.231 215.808 391.486 183.799 384.911 174.034C381.998 169.708 372.48 168.854 372.48 168.854L363.525 170.527C360.069 171.172 356.909 172.899 354.503 175.461C348.822 181.514 338.237 192.817 334.667 196.825C330.943 201.007 341.919 200.969 341.919 209.774C341.919 216.646 363.324 189.428 363.324 189.428C363.324 189.428 357.459 226.348 364.71 221.169Z" fill="white" stroke="#292839" stroke-width="1.2" stroke-linecap="round"/>
</mask>
<g mask="url(#mask1)">
<path d="M388.017 214.954C388.783 211.935 395.558 211.328 393.715 203.559C390.94 191.865 388.843 182.01 382.637 171.416L395.558 185.936L404.074 215.99C404.074 215.99 386.763 219.901 388.017 214.954Z" fill="#FFE94E"/>
</g>
<path d="M364.71 221.169C373.691 214.754 389.571 213.4 400.967 214.954C407.231 215.808 391.486 183.799 384.911 174.034C381.998 169.708 372.48 168.854 372.48 168.854L363.525 170.527C360.069 171.172 356.909 172.899 354.503 175.461C348.822 181.514 338.237 192.817 334.667 196.825C330.943 201.007 341.919 200.969 341.919 209.774C341.919 216.646 363.324 189.428 363.324 189.428C363.324 189.428 357.459 226.348 364.71 221.169Z" stroke="#292839" stroke-width="1.2" stroke-linecap="round"/>
<path d="M358.058 356.565C358.058 348.2 364.839 341.419 373.204 341.419H410.083C418.447 341.419 425.229 348.2 425.229 356.565C425.229 358.408 423.735 359.901 421.892 359.901H361.394C359.551 359.901 358.058 358.408 358.058 356.565Z" fill="#292839" stroke="#292839" stroke-width="1.2" stroke-linecap="round"/>
<mask id="mask2" mask-type="alpha" maskUnits="userSpaceOnUse" x="357" y="340" width="69" height="21">
<path d="M358.058 356.565C358.058 348.2 364.839 341.419 373.204 341.419H410.083C418.447 341.419 425.229 348.2 425.229 356.565C425.229 358.408 423.735 359.901 421.892 359.901H361.394C359.551 359.901 358.058 358.408 358.058 356.565Z" fill="white" stroke="#292839" stroke-width="1.2" stroke-linecap="round"/>
</mask>
<g mask="url(#mask2)">
<path d="M352.878 356.565C352.878 348.2 359.659 341.419 368.024 341.419H404.903C413.268 341.419 420.049 348.2 420.049 356.565C420.049 358.408 418.555 359.901 416.712 359.901H356.214C354.372 359.901 352.878 358.408 352.878 356.565Z" fill="white" stroke="#292839" stroke-width="1.2" stroke-linecap="round"/>
</g>
<path d="M358.058 356.565C358.058 348.2 364.839 341.419 373.204 341.419H410.083C418.447 341.419 425.229 348.2 425.229 356.565C425.229 358.408 423.735 359.901 421.892 359.901H361.394C359.551 359.901 358.058 358.408 358.058 356.565Z" stroke="#292839" stroke-width="1.2" stroke-linecap="round"/>
<path d="M364.191 391.061L373.514 359.983H384.91L367.299 391.061H364.191Z" stroke="#292839" stroke-width="1.2" stroke-linecap="round"/>
<path d="M417.541 391.061L408.218 359.983H396.823L414.433 391.061H417.541Z" stroke="#292839" stroke-width="1.2" stroke-linecap="round"/>
<path d="M177.207 391.061L151.309 296.274H139.914L174.099 391.061H177.207Z" fill="white" stroke="#292839" stroke-width="1.2" stroke-linecap="round"/>
<path d="M71.0248 391.579L98.4768 296.274H109.872L74.1326 391.579H71.0248Z" fill="white" stroke="#292839" stroke-width="1.2" stroke-linecap="round"/>
<path d="M74.2146 294.824C74.2146 289.663 78.3984 285.479 83.5595 285.479H165.19C170.351 285.479 174.535 289.663 174.535 294.824C174.535 295.865 173.691 296.71 172.649 296.71H76.1008C75.0591 296.71 74.2146 295.866 74.2146 294.824Z" fill="white" stroke="#292839" stroke-width="1.2" stroke-linecap="round"/>
<path d="M164.776 192.164L159.433 202.363C159.2 202.808 159.078 203.303 159.078 203.805V221.687" stroke="white" stroke-width="1.2" stroke-linecap="round"/>
<path d="M140.078 274.104V252.247L130.888 251.286V275.371L140.078 274.104Z" stroke="#292839" stroke-width="1.2" stroke-linecap="round"/>
<path d="M129.937 284.879L131.108 274.002C131.108 274.002 134.7 275.302 136.806 274.002C138.648 272.865 139.914 270.894 139.914 270.894L149.755 278.663L154.723 279.954C156.55 280.428 157.825 282.077 157.825 283.964V284.879H129.937Z" fill="#292839" stroke="#292839" stroke-width="1.2" stroke-linecap="round"/>
<path d="M97.2949 270.935L104.584 250.653L97.2949 245.265L90.006 266.181L97.2949 270.935Z" fill="white" stroke="#292839" stroke-width="1.2" stroke-linecap="round"/>
<path d="M143.539 253.822C148.323 234.49 143.539 164.194 143.539 164.194L123.915 204.067C123.915 204.067 128.001 240.334 128.669 253.822C128.82 256.866 132.577 254.081 136.288 253.822C139.646 253.587 142.966 256.139 143.539 253.822Z" fill="white" stroke="#292839" stroke-width="1.2" stroke-linecap="round"/>
<mask id="mask3" mask-type="alpha" maskUnits="userSpaceOnUse" x="123" y="161" width="24" height="95">
<path d="M143.539 253.822C148.323 234.49 143.539 164.194 143.539 164.194L123.915 204.067C123.915 204.067 128.001 240.334 128.669 253.822C128.82 256.866 132.577 254.081 136.288 253.822C139.646 253.587 142.966 256.139 143.539 253.822Z" fill="white" stroke="#292839" stroke-width="1.2" stroke-linecap="round"/>
</mask>
<g mask="url(#mask3)">
<path d="M142.504 215.472C141.111 204.639 144.18 185.948 144.18 185.948L148.694 217.097L150.661 252.247C150.661 252.247 123.412 263.594 126.965 256.391C129.133 251.994 136.606 253.747 139.396 249.139C142.186 244.531 143.418 222.585 142.504 215.472Z" fill="#FFE94E"/>
</g>
<path d="M143.539 253.822C148.323 234.49 143.539 164.194 143.539 164.194L123.915 204.067C123.915 204.067 128.001 240.334 128.669 253.822C128.82 256.866 132.577 254.081 136.288 253.822C139.646 253.587 142.966 256.139 143.539 253.822Z" stroke="#292839" stroke-width="1.2" stroke-linecap="round"/>
<path d="M141.986 174.594C144.515 168.1 144.515 156.213 144.515 156.213L120.429 151.459C120.429 151.459 119.673 158.118 118.528 162.234C117.13 167.261 115.082 169.636 113.457 174.594C109.337 187.169 112.164 195.333 109.021 208.187C105.335 223.257 91.2253 238.262 94.7596 245.265C95.595 246.92 98.5022 246.243 100.031 247.586C102.518 249.77 103.914 253.282 105.852 250.969C113.457 241.888 132.723 198.379 141.986 174.594Z" fill="white" stroke="#292839" stroke-width="1.2" stroke-linecap="round"/>
<path d="M84.6802 270.591C86.3297 269.003 88.548 266.945 90.1894 265.714C90.1894 265.714 92.3453 267.736 94.3331 268.304C95.901 268.753 98.4768 268.822 98.4768 268.822L101.732 277.59L106.915 280.799C107.83 281.365 108.387 282.365 108.387 283.441V284.879H95.3935C92.6123 282.312 87.6648 277.723 84.7432 275.011C83.4587 273.819 83.4177 271.807 84.6802 270.591Z" fill="#292839" stroke="#292839" stroke-width="1.2" stroke-linecap="round"/>
<path d="M134.542 103.247L136.296 110.844H125.324L127.709 102.336L122.303 97.9295L126.119 89.4211L138.363 88.0537C138.363 88.0537 143.61 104.463 139.158 105.07C136.517 105.431 134.542 103.247 134.542 103.247Z" fill="white" stroke="#292839" stroke-width="1.2" stroke-linecap="round"/>
<path d="M105.797 88.0183C112.211 80.5601 118.459 86.4831 125.679 82.9921C129.849 80.9762 138.738 72.6375 141.553 82.1814C144.278 91.4232 133.375 85.5863 130.008 93.8552C130.008 93.8552 127.785 91.2933 126.321 92.3959C124.636 93.6644 128.084 96.9358 128.084 96.9358C128.084 96.9358 129.135 101.257 128.084 103.421C123.755 112.339 127.443 116.23 123.114 123.85C119.736 129.797 117.502 128.066 109.645 132.768C101.789 137.47 99.8925 159.044 90.5653 159.521C81.8775 159.964 82.1312 147.561 81.9071 138.767C81.5513 124.81 100.001 117.328 101.629 109.096C103.257 100.865 99.3838 95.4765 105.797 88.0183Z" fill="#292839" stroke="#292839" stroke-width="1.2" stroke-linecap="round"/>
<path d="M131.626 98.9307L133.698 101.52L135.252 109.29L131.626 98.9307Z" fill="#292839"/>
<path d="M189.39 89.1732C189.816 89.3786 190.343 90.2868 190.906 91.5823C194.149 99.0467 195.77 102.779 193.46 104.253C191.149 105.726 188.562 102.81 183.389 96.9778C181.98 95.3889 181.141 93.8301 181.474 92.5338C181.963 90.637 183.383 91.0885 184.905 90.3323C186.515 89.5328 187.771 88.3925 189.39 89.1732Z" fill="white" stroke="#292839" stroke-width="1.2" stroke-linecap="round"/>
<path d="M161.966 113.953L192.654 93.2575C193.022 93.0098 193.516 93.0755 193.806 93.4105C194.131 93.7864 194.079 94.3572 193.691 94.6675L164.777 117.777C163.75 118.598 162.252 118.429 161.434 117.399C160.573 116.314 160.819 114.727 161.966 113.953Z" fill="white" stroke="#292839" stroke-width="1.2" stroke-linecap="round"/>
<path d="M184.481 98.6085L186.1 100.63" stroke="#292839" stroke-width="1.2" stroke-linecap="round"/>
<path d="M162.312 113.392C156.563 117.807 145.404 130.127 144.049 130.636L139.174 122.805C139.174 122.805 147.564 116.229 156.53 109.941C163.582 104.996 167.094 105.9 170.362 105.671C176.362 105.252 165.631 110.932 165.631 110.932C165.631 110.932 170.314 110.421 169.428 113.454C168.904 115.249 162.312 113.392 162.312 113.392Z" fill="white" stroke="#292839" stroke-width="1.2" stroke-linecap="round"/>
<path d="M144.515 141.636C144.096 146.423 144.515 146.382 146.129 153.835C148.158 163.202 128.485 154.193 120.88 155.59C106.358 158.257 124.268 111.391 126.134 106.142L135.252 109.808C135.252 109.808 147.72 123.143 147.367 131.494C147.193 135.605 144.873 137.537 144.515 141.636Z" fill="white" stroke="#292839" stroke-width="1.2" stroke-linecap="round"/>
<path d="M159.409 135.931C151.752 137.525 136.806 133.634 136.806 133.634L143.564 123.888C143.564 123.888 149.391 126.533 153.388 127.057C162.097 128.201 175.043 120.978 175.043 120.978C175.043 120.978 177.693 113.434 179.797 113.434C181.901 113.434 179.797 116.541 179.797 116.541C179.797 116.541 184.612 111.362 189.638 111.362C191.41 111.362 181.698 120.978 181.698 120.978C181.698 120.978 169.671 133.794 159.409 135.931Z" fill="white" stroke="#292839" stroke-width="1.2" stroke-linecap="round"/>
<path d="M143.881 122.621C141.71 119.795 135.324 119.452 135.324 119.452L127.085 132.445C127.085 132.445 138.321 140.954 138.878 136.224C139.579 130.271 145.577 124.829 143.881 122.621Z" fill="white" stroke="white" stroke-width="1.2" stroke-linecap="round"/>
<path d="M135.324 119.452C135.324 119.452 141.71 119.795 143.881 122.621C145.577 124.829 139.579 130.271 138.878 136.224C138.321 140.954 127.085 132.445 127.085 132.445" stroke="#292839" stroke-width="1.2" stroke-linecap="round"/>
<path d="M45.9516 381.609L44.662 370.628L35.8695 369.819C36.0339 372.244 36.6246 380.463 36.431 381.047C36.2374 381.63 43.1191 381.707 45.9516 381.609Z" fill="white" stroke="#292839" stroke-width="1.2" stroke-linecap="round"/>
<path d="M37.1135 369.347L36.9031 370.994L36.8209 373.996L44.1512 372.036L43.3693 370.146L37.1135 369.347Z" fill="#292839" stroke="#292839" stroke-width="1.2" stroke-linecap="round"/>
<path d="M50.2055 386.794C48.4876 385.107 47.1655 382.996 46.5167 381.86C46.2306 381.359 45.7272 381.012 45.1534 380.953L37.3354 380.156C36.6186 380.083 35.9347 380.474 35.6347 381.129L31.4256 390.321C31.1725 390.873 31.7324 391.559 32.3358 391.485C33.6291 391.328 35.7567 391.228 38.8702 391.545C41.3994 391.803 44.0493 393.083 49.4284 394.411C54.9553 395.775 59.4522 394.788 60.9419 394.371C61.1447 394.314 61.171 394.051 60.9857 393.951C59.2146 392.996 53.0312 389.568 50.2055 386.794Z" fill="#292839" stroke="#292839" stroke-width="1.2" stroke-linecap="round"/>
<path d="M99.0583 377.123L90.7097 369.875L83.6654 375.198C85.4199 376.88 91.3925 382.558 91.6423 383.12C91.8921 383.682 97.0312 379.104 99.0583 377.123Z" fill="white" stroke="#292839" stroke-width="1.2" stroke-linecap="round"/>
<path d="M85.0481 375.429L85.0645 375.447L85.0795 375.466L86.6467 377.479L91.324 372.671L84.1657 374.467L85.0481 375.429Z" fill="#292839" stroke="#292839" stroke-width="1.2" stroke-linecap="round"/>
<path d="M105.695 378.091C103.289 378.001 100.89 377.331 99.6453 376.928C99.0966 376.751 98.4905 376.833 98.027 377.176L91.7107 381.852C91.1315 382.28 90.8896 383.03 91.1091 383.717L94.1881 393.346C94.3733 393.925 95.2487 394.055 95.6453 393.594C96.4952 392.606 98.0005 391.1 100.516 389.237C102.559 387.725 105.38 386.886 110.25 384.245C115.255 381.531 117.914 377.773 118.734 376.461C118.846 376.282 118.688 376.07 118.484 376.121C116.532 376.608 109.652 378.239 105.695 378.091Z" fill="#292839" stroke="#292839" stroke-width="1.2" stroke-linecap="round"/>
<path d="M83.085 204.862L78.0932 211.778L83.8145 215.946L88.5539 209.076L83.085 204.862Z" fill="white" stroke="#292839" stroke-width="1.2" stroke-linecap="round"/>
<path d="M61.6823 224.703C50.9668 232.025 34.4887 225.78 34.4887 225.78L40.3629 239.311C40.3629 239.311 57.3566 243.941 68.3136 238.095C80.2484 231.727 89.7789 214.33 86.2456 214.978C82.2012 215.72 80.131 206.247 77.3778 209.301C74.5601 212.427 70.6361 218.584 61.6823 224.703Z" fill="white" stroke="#292839" stroke-width="1.2" stroke-linecap="round"/>
<path d="M35.6225 217.222C34.1816 214.48 35.235 211.088 37.9752 209.645L71.3081 192.089C71.7733 191.844 72.3487 192.023 72.5933 192.488L77.5649 201.947C78.1178 202.999 79.4185 203.403 80.47 202.85L89.2091 198.247C89.6742 198.002 90.2496 198.181 90.4942 198.646L115.188 245.63C116.629 248.372 115.576 251.764 112.836 253.207L72.1367 274.642C69.3965 276.085 66.007 275.033 64.5662 272.291L35.6225 217.222Z" fill="#AC00FC" stroke="#292839" stroke-width="1.2"/>
<path d="M59.8695 249.25L93.7262 231.426" stroke="white" stroke-width="1.2" stroke-linecap="round"/>
<path d="M62.246 253.765L96.1027 235.941" stroke="white" stroke-width="1.2" stroke-linecap="round"/>
<path d="M64.6225 258.279L98.4793 240.455" stroke="white" stroke-width="1.2" stroke-linecap="round"/>
<path d="M80.0428 198.391L75.7055 190.139C75.5676 189.876 75.8406 189.588 76.1098 189.712L86.793 194.622C87.0269 194.729 87.0357 195.059 86.8078 195.179L80.4618 198.521C80.3101 198.601 80.1225 198.543 80.0428 198.391Z" fill="#AC00FC" stroke="#292839" stroke-width="1.2"/>
<path d="M41.7181 227.695C41.2166 226.741 41.583 225.561 42.5364 225.059L79.2574 205.721C80.2105 205.219 81.3895 205.585 81.8909 206.539L88.3057 218.74C88.8072 219.694 88.4407 220.874 87.4874 221.376L50.7664 240.714C49.8132 241.215 48.6343 240.849 48.1329 239.896L41.7181 227.695Z" fill="white" stroke="#292839" stroke-width="1.2"/>
<path d="M49.7456 226.252L51.7184 225.213L54.6793 230.847C54.954 231.369 55.0769 231.9 55.048 232.438C55.0229 232.975 54.8516 233.471 54.5343 233.926C54.2207 234.379 53.7971 234.746 53.2635 235.027C52.3691 235.498 51.5554 235.639 50.8223 235.449C50.0891 235.259 49.5052 234.75 49.0705 233.923L51.0546 232.878C51.2522 233.254 51.4593 233.493 51.676 233.595C51.8965 233.695 52.1589 233.665 52.4633 233.504C52.7376 233.36 52.8947 233.148 52.9345 232.867C52.9761 232.581 52.9001 232.254 52.7065 231.886L49.7456 226.252ZM61.4103 227.806C61.2581 227.516 61.0362 227.345 60.7446 227.292C60.4567 227.238 60.0099 227.259 59.4042 227.358C58.7985 227.456 58.2897 227.51 57.8778 227.521C56.5397 227.558 55.6305 227.12 55.1504 226.207C54.9113 225.752 54.8324 225.282 54.9137 224.798C54.9967 224.308 55.2302 223.839 55.6142 223.392C55.9962 222.941 56.4897 222.556 57.0947 222.238C57.6847 221.927 58.268 221.754 58.8446 221.719C59.425 221.683 59.9475 221.791 60.4123 222.046C60.8751 222.296 61.2379 222.672 61.5007 223.172L59.5279 224.211C59.352 223.876 59.1124 223.671 58.8089 223.596C58.5091 223.518 58.1845 223.572 57.835 223.756C57.4818 223.942 57.2434 224.168 57.1197 224.435C56.9978 224.696 57 224.947 57.1265 225.188C57.2371 225.398 57.4506 225.53 57.767 225.585C58.0814 225.635 58.5707 225.603 59.2349 225.488C59.8972 225.37 60.4659 225.32 60.9411 225.339C62.0966 225.383 62.9106 225.854 63.3828 226.753C63.7602 227.471 63.786 228.177 63.4603 228.872C63.1345 229.567 62.5001 230.162 61.5569 230.659C60.8917 231.009 60.2264 231.209 59.5608 231.257C58.8969 231.299 58.3192 231.186 57.8275 230.917C57.3376 230.642 56.9504 230.234 56.6659 229.693L58.65 228.648C58.8812 229.087 59.1648 229.353 59.501 229.445C59.8389 229.531 60.2633 229.44 60.7744 229.17C61.1013 228.998 61.3222 228.793 61.437 228.555C61.5535 228.311 61.5446 228.062 61.4103 227.806ZM71.4705 220.268C71.8914 221.069 72.1154 221.856 72.1426 222.629C72.1698 223.402 71.997 224.1 71.6242 224.723C71.2532 225.341 70.7183 225.834 70.0193 226.202C69.3204 226.57 68.6163 226.737 67.9073 226.703C67.1962 226.664 66.5314 226.426 65.9129 225.989C65.2981 225.55 64.7796 224.947 64.3576 224.18L64.1145 223.718C63.6917 222.913 63.4658 222.127 63.4368 221.36C63.4096 220.587 63.5824 219.889 63.9552 219.265C64.3317 218.64 64.8714 218.142 65.5741 217.772C66.2693 217.406 66.9762 217.245 67.695 217.289C68.4138 217.332 69.0845 217.582 69.7072 218.036C70.3317 218.485 70.8533 219.103 71.272 219.89L71.4705 220.268ZM69.2774 220.984C68.8487 220.168 68.3865 219.622 67.8909 219.345C67.397 219.063 66.8964 219.056 66.3891 219.323C65.3971 219.845 65.2641 220.866 65.9902 222.384L66.3017 222.99C66.7245 223.795 67.183 224.343 67.677 224.635C68.1711 224.927 68.6811 224.934 69.2072 224.657C69.707 224.394 69.9805 223.979 70.0278 223.411C70.0751 222.844 69.8912 222.161 69.476 221.362L69.2774 220.984ZM82.4527 219.51L80.4855 220.546L74.8917 216.969L77.577 222.078L75.5985 223.12L71.2831 214.909L73.2616 213.867L78.8497 217.447L76.1645 212.338L78.1373 211.299L82.4527 219.51Z" fill="#292839"/>
<path d="M89.6337 263.047C83.3521 264.14 71.2958 255.146 71.2958 255.146L70.1766 264.443C70.1766 264.443 87.4544 271.622 97.3229 268.349C101.306 267.027 102.125 262.373 102.252 259.64C102.291 258.796 101.338 258.404 100.712 258.971L96.1082 263.147C95.7546 263.467 95.193 263.174 95.2546 262.7L95.4685 261.056C95.5298 260.585 94.9556 260.268 94.5758 260.553C93.3949 261.44 91.4239 262.735 89.6337 263.047Z" fill="white" stroke="#292839" stroke-width="1.2" stroke-linecap="round"/>
<path d="M27.1109 215.286L24.8641 219.754L15.3317 213.219L16.4958 209.467L11.0201 201.133L8.57365 195.054L13.2977 187.252L24.6551 189.317C24.6551 189.317 32.2288 205.245 29.5848 209.525C27.9966 212.096 23.5409 208.704 23.5409 208.704L27.1109 215.286Z" fill="white" stroke="#292839" stroke-width="1.2" stroke-linecap="round"/>
<path d="M29.3256 193.212C24.7805 193.722 19.3036 189.28 16.0435 191.833C13.7746 193.61 13.9274 197.593 13.9274 197.593C13.9274 197.593 11.8815 196.082 10.6862 197.081C8.94905 198.533 13.5207 201.909 13.5207 201.909L15.4737 208.164C15.4737 208.164 0.850015 199.753 4.31033 193.238C5.42624 191.138 7.34392 190.938 8.6103 188.924C10.0477 186.638 8.86124 184.305 10.7091 182.336C14.1214 178.7 18.5286 184.661 23.41 183.644C25.6127 183.185 26.6137 181.36 28.8366 181.709C31.7823 182.17 33.8734 184.419 33.9256 187.401C33.9763 190.295 32.2022 192.89 29.3256 193.212Z" fill="#292839" stroke="#292839" stroke-width="1.2" stroke-linecap="round"/>
<path d="M21.1633 206.933L23.6954 208.648L26.9557 215.341L21.1633 206.933Z" fill="#292839"/>
<path d="M50.0363 369.879C54.45 343.409 52.3781 275.556 52.3781 275.556L27.4278 284C27.4278 284 33.2455 325.628 29.9902 366.385C29.6491 370.656 32.356 372.361 37.5019 370.681C42.9226 368.911 49.2939 374.331 50.0363 369.879Z" fill="white" stroke="#292839" stroke-width="1.2" stroke-linecap="round"/>
<path d="M82.0399 375.353C88.2863 371.296 89.0069 375.332 94.6049 370.801C99.4583 366.872 82.7166 348.787 73.8457 329.775C63.7733 308.187 53.9321 277.627 53.9321 277.627L24.4083 280.217C24.4083 280.217 32.8957 304.115 50.3958 332.079C64.2914 354.284 77.714 378.163 82.0399 375.353Z" fill="white" stroke="#292839" stroke-width="1.2" stroke-linecap="round"/>
<path d="M10.1933 224.674C10.5772 237.532 12.5901 260.052 21.251 278.712C26.1707 289.311 29.0745 277.276 54.9646 279.047C59.3916 279.35 50.0732 255.268 50.0732 255.268C50.0732 255.268 67.6701 265.865 75.5908 267.802C78.0683 268.409 75.971 263.792 76.9104 260.778C78.3342 256.21 82.1545 253.668 78.5033 252.398C49.5245 242.325 36.8015 222.746 25.7247 213.561C24.3407 212.414 22.3636 212.035 20.2823 212.062C13.9479 212.147 10.0042 218.342 10.1933 224.674Z" fill="white" stroke="#292839" stroke-width="1.2" stroke-linecap="round"/>
<mask id="mask4" mask-type="alpha" maskUnits="userSpaceOnUse" x="9" y="211" width="72" height="73">
<path d="M10.1933 224.674C10.5772 237.532 12.5901 260.052 21.251 278.712C26.1707 289.311 29.0745 277.276 54.9646 279.047C59.3916 279.35 50.0732 255.268 50.0732 255.268C50.0732 255.268 67.6701 265.865 75.5908 267.802C78.0683 268.409 75.971 263.792 76.9104 260.778C78.3342 256.21 82.1545 253.668 78.5033 252.398C49.5245 242.325 36.8015 222.746 25.7247 213.561C24.3407 212.414 22.3636 212.035 20.2823 212.062C13.9479 212.147 10.0042 218.342 10.1933 224.674Z" fill="white" stroke="#292839" stroke-width="1.2" stroke-linecap="round"/>
</mask>
<g mask="url(#mask4)">
<path d="M16.119 247.933C12.4371 237.65 9.99457 221.665 9.99457 221.665L8.59867 252.225L22.8163 284.431C22.8163 284.431 49.2123 284.267 42.7744 279.464C38.8452 276.533 30.6412 279.368 26.0623 276.531C21.4834 273.693 18.5365 254.684 16.119 247.933Z" fill="#FFE94E"/>
</g>
<path d="M10.1984 224.687C10.5857 237.624 12.6032 260.323 21.2785 279.014C26.1982 289.613 29.102 277.578 54.9921 279.349C59.419 279.652 50.0732 255.268 50.0732 255.268C50.0732 255.268 67.6701 265.865 75.5908 267.802C78.0683 268.409 75.971 263.792 76.9104 260.778C78.3342 256.21 82.1545 253.668 78.5033 252.398C49.5245 242.325 36.8015 222.746 25.7247 213.561C24.3436 212.416 22.3721 212.036 20.2957 212.062C13.9544 212.142 10.0086 218.348 10.1984 224.687Z" stroke="#292839" stroke-width="1.2" stroke-linecap="round"/>
<path d="M33 220L36 218" stroke="#292839" stroke-width="1.2"/>
<path d="M50.3721 255.473C35.9012 247.694 29.9391 236.527 29.9391 236.527" stroke="#292839" stroke-width="1.2" stroke-linecap="round"/>
<path d="M93.4528 214.999C93.3309 213.353 95.3511 204.078 95.3511 204.078C95.3511 204.078 97.0891 204.919 98.9009 207.627C100.584 210.142 100.461 212.593 100.461 212.593C100.461 212.593 93.6665 217.885 93.4528 214.999Z" fill="white" stroke="#292839" stroke-width="1.2" stroke-linecap="round"/>
<path d="M95.2732 201.529C95.8118 201.963 95.0219 205.59 95.0219 205.59L92.8284 202.579C92.8284 202.579 94.464 200.877 95.2732 201.529Z" fill="white" stroke="#292839" stroke-width="1.2" stroke-linecap="round"/>
<path d="M487.984 391.579H203.623" stroke="black" stroke-width="1.2" stroke-linecap="round"/>
<path d="M146.129 391.579H4.72571" stroke="black" stroke-width="1.2" stroke-linecap="round"/>
<path d="M257.153 136.926L264.225 123.793L249.722 121.721L232.111 132.08L222.788 166.784L242.47 205.113H264.225V185.699C264.225 185.523 264.18 185.35 264.094 185.196L254.141 167.281C253.969 166.971 253.967 166.595 254.136 166.284L260.417 154.688C260.534 154.472 260.571 154.221 260.52 153.98L257.052 137.632C257.001 137.392 257.037 137.142 257.153 136.926Z" fill="white" stroke="white" stroke-width="1.2" stroke-linecap="round"/>
<path d="M264.224 123.793L257.513 136.257C257.164 136.904 257.057 137.655 257.209 138.375L260.361 153.234C260.515 153.956 260.406 154.709 260.054 155.359L254.677 165.285C254.171 166.218 254.177 167.346 254.693 168.274L263.833 184.726C264.09 185.188 264.224 185.708 264.224 186.236V205.113" stroke="#292839" stroke-width="1.2" stroke-linecap="round"/>
</svg>
