<svg width="466" height="280" viewBox="0 0 466 280" fill="none" xmlns="http://www.w3.org/2000/svg">
<path d="M84.4968 129.179V139.595H92.6728C96.2568 139.595 98.4408 137.523 98.4408 134.331C98.4408 131.307 96.2568 129.179 92.6728 129.179H84.4968Z" fill="#261903"/>
<path d="M119.146 138.195V129.179H127.882C131.186 129.179 133.314 130.971 133.314 133.659C133.314 136.403 131.186 138.195 127.882 138.195H119.146Z" fill="#261903"/>
<path d="M164.952 151.187C158.848 151.187 154.2 146.483 154.2 140.099C154.2 133.659 158.848 128.899 164.952 128.899C171.056 128.899 175.704 133.659 175.704 140.099C175.704 146.483 171.056 151.187 164.952 151.187Z" fill="#261903"/>
<path d="M207.325 151.187C201.221 151.187 196.573 146.483 196.573 140.099C196.573 133.659 201.221 128.899 207.325 128.899C213.429 128.899 218.077 133.659 218.077 140.099C218.077 146.483 213.429 151.187 207.325 151.187Z" fill="#261903"/>
<path fill-rule="evenodd" clip-rule="evenodd" d="M331.397 186.227L266.009 279.611L166 209.584L65.9918 279.611L0.604057 186.228L66.6239 140L0.603516 93.772L65.9912 0.388672L166 70.4158L266.009 0.388859L331.397 93.7722L265.377 140L331.397 186.227ZM75.2568 121.283V158.803H84.4968V147.323H93.3448C102.025 147.323 107.513 142.115 107.513 134.219C107.513 126.491 102.193 121.283 93.7368 121.283H75.2568ZM132.53 145.475L144.29 158.803H133.146L121.834 145.923H119.146V158.803H109.906V121.283H128.89C137.01 121.283 142.386 126.211 142.386 133.547C142.386 139.707 138.578 144.131 132.53 145.475ZM164.952 120.443C153.752 120.443 144.96 129.123 144.96 140.099C144.96 151.019 153.752 159.643 164.952 159.643C176.152 159.643 184.944 151.019 184.944 140.099C184.944 129.123 176.152 120.443 164.952 120.443ZM187.333 140.099C187.333 129.123 196.125 120.443 207.325 120.443C218.525 120.443 227.317 129.123 227.317 140.099C227.317 151.019 218.525 159.643 207.325 159.643C196.125 159.643 187.333 151.019 187.333 140.099ZM239.092 129.403H258.86V121.283H229.852V158.803H239.092V145.363H256.676V137.299H239.092V129.403Z" fill="#261903"/>
<path d="M425.099 147.411C423.597 148.269 421.45 148.842 419.876 148.842C416.871 148.842 415.082 147.339 415.082 143.618V131.169H425.672V122.082H415.082V111.492H403.634V122.082H397.123V131.169H403.634V144.763C403.634 154.208 409 159.073 417.944 159.073C422.023 159.073 424.956 157.928 427.747 156.426L425.099 147.411Z" fill="#261903"/>
<path d="M332.13 127.09C334.992 123.37 339.285 121.009 344.865 121.009C352.521 121.009 358.603 126.804 358.603 135.533V158H347.227V137.966C347.227 133.888 344.579 131.312 341.216 131.312C336.995 131.312 334.204 134.388 334.204 140.399V158H322.756V137.966C322.756 133.888 320.109 131.312 316.675 131.312C312.525 131.312 309.806 134.388 309.806 140.399V158H298.358V122.082H309.806V125.373C312.239 122.654 315.745 121.009 320.395 121.009C325.404 121.009 329.697 123.155 332.13 127.09Z" fill="#261903"/>
<path fill-rule="evenodd" clip-rule="evenodd" d="M379.866 121.009C390.026 121.009 398.182 128.307 398.397 140.041V142.975H372.067C372.997 147.268 375.93 149.915 379.794 149.915C382.441 149.915 385.518 149.271 387.45 145.765L397.61 147.84C394.533 155.424 388.022 159.073 379.794 159.073C369.419 159.073 360.833 151.417 360.833 140.041C360.833 128.736 369.419 121.009 379.866 121.009ZM387.092 135.963C386.019 132.099 383.157 130.31 379.866 130.31C376.646 130.31 373.355 132.314 372.281 135.963H387.092Z" fill="#261903"/>
<path fill-rule="evenodd" clip-rule="evenodd" d="M454.496 122.082H465.944V158H454.496V155.138C451.705 157.642 447.985 159.073 443.334 159.073C433.818 159.073 425.804 151.417 425.804 140.041C425.804 128.736 433.818 121.009 443.334 121.009C447.985 121.009 451.705 122.44 454.496 124.944V122.082ZM437.037 140.041C437.037 145.622 440.687 149.342 445.695 149.342C450.346 149.342 454.496 145.622 454.496 140.041C454.496 134.532 450.346 130.739 445.695 130.739C440.687 130.739 437.037 134.532 437.037 140.041Z" fill="#261903"/>
</svg>
